HIERARCHY
ROOT RootJoint
{
    OFFSET   0.000000   0.000000   0.000000
    CHANNELS 6 Xposition Yposition Zposition Xrotation Yrotation Zrotation
    JOINT pelvis_lowerback
    {
        OFFSET   0.000000   0.093605   0.000000
        CHANNELS 3 Xrotation Yrotation Zrotation
        JOINT lowerback_torso
        {
            OFFSET   0.000000   0.100000   0.000000
            CHANNELS 3 Xrotation Yrotation Zrotation
            JOINT torso_head
            {
                OFFSET   0.000000   0.282350   0.000000
                CHANNELS 3 Xrotation Yrotation Zrotation
                End Site
                {
                    OFFSET   0.000000   0.192650   0.000000
                }
            }
            JOINT rTorso_Clavicle
            {
                OFFSET  -0.001000   0.157500   0.000000
                CHANNELS 3 Xrotation Yrotation Zrotation
                JOINT rShoulder
                {
                    OFFSET  -0.117647   0.000000   0.000000
                    CHANNELS 3 Xrotation Yrotation Zrotation
                    JOINT rElbow
                    {
                        OFFSET  -0.245000   0.000000   0.000000
                        CHANNELS 3 Xrotation Yrotation Zrotation
                        JOINT rWrist
                        {
                            OFFSET  -0.240000   0.000000   0.000000
                            CHANNELS 3 Xrotation Yrotation Zrotation
                            End Site
                            {
                                OFFSET  -0.116353  -0.002500   0.000000
                            }
                        }
                    }
                }
            }
            JOINT lTorso_Clavicle
            {
                OFFSET   0.001000   0.157500   0.000000
                CHANNELS 3 Xrotation Yrotation Zrotation
                JOINT lShoulder
                {
                    OFFSET   0.117647   0.000000   0.000000
                    CHANNELS 3 Xrotation Yrotation Zrotation
                    JOINT lElbow
                    {
                        OFFSET   0.245000   0.000000   0.000000
                        CHANNELS 3 Xrotation Yrotation Zrotation
                        JOINT lWrist
                        {
                            OFFSET   0.240000   0.000000   0.000000
                            CHANNELS 3 Xrotation Yrotation Zrotation
                            End Site
                            {
                                OFFSET   0.116353  -0.002500   0.000000
                            }
                        }
                    }
                }
            }
        }
    }
    JOINT rHip
    {
        OFFSET  -0.100000  -0.051395   0.000000
        CHANNELS 3 Xrotation Yrotation Zrotation
        JOINT rKnee
        {
            OFFSET   0.000000  -0.410000   0.000000
            CHANNELS 3 Xrotation Yrotation Zrotation
            JOINT rAnkle
            {
                OFFSET   0.000000  -0.390000   0.000000
                CHANNELS 3 Xrotation Yrotation Zrotation
                JOINT rToeJoint
                {
                    OFFSET   0.000000  -0.050000   0.130000
                    CHANNELS 3 Xrotation Yrotation Zrotation
                    End Site
                    {
                        OFFSET  -0.010000   0.002000   0.060000
                    }
                }
            }
        }
    }
    JOINT lHip
    {
        OFFSET   0.100000  -0.051395   0.000000
        CHANNELS 3 Xrotation Yrotation Zrotation
        JOINT lKnee
        {
            OFFSET   0.000000  -0.410000   0.000000
            CHANNELS 3 Xrotation Yrotation Zrotation
            JOINT lAnkle
            {
                OFFSET   0.000000  -0.390000   0.000000
                CHANNELS 3 Xrotation Yrotation Zrotation
                JOINT lToeJoint
                {
                    OFFSET   0.000000  -0.050000   0.130000
                    CHANNELS 3 Xrotation Yrotation Zrotation
                    End Site
                    {
                        OFFSET   0.010000   0.002000   0.060000
                    }
                }
            }
        }
    }
}
MOTION
Frames: 12
Frame Time:   0.008333
 -2.868559   0.921099   4.422903   7.431782   1.661709  -1.383347   8.051044  -0.685117   1.828180  -1.780069  -0.683403   2.606946   3.473910   0.335585  -0.996410  -0.612586  -7.769626 -15.206382  16.668940   8.198910  36.813261  -0.794178  87.094593   0.800139  -2.113629   6.472922   5.539615  -0.531507  -0.333200  14.926488  10.804092 -20.201696 -23.673470 -179.867010 -76.834785 -179.830223  -1.668167  -8.044870  -5.680098 -33.977370 -11.862940 -11.106925  52.619024  -0.008102  -0.003190   7.432975 -18.474157   8.110359  -2.988675   0.001228  -0.001023  -2.577284   8.066880   2.209547   6.029453  -0.001092   0.000565  -9.504504  12.389468  12.055147  -2.981688   0.000668   0.000262
 -2.872371   0.920437   4.424767   7.465972   1.526070  -1.522894   8.235208  -0.890354   1.998144  -2.097488  -0.735858   2.538617   3.393949   0.475974  -1.028787  -0.714235  -7.836526 -14.791855  15.812991   8.152683  37.035830  -0.763054  87.381798   0.769367  -2.182783   6.523322   5.227321  -0.691863  -0.258753  14.658220   9.704959 -20.200750 -23.797888 -179.885624 -76.599036 -179.855581  -1.675385  -8.208073  -5.372738 -34.104126 -11.720267 -10.944374  50.258433  -0.007756  -0.003819   7.133566 -18.332974   8.056613  -3.067602   0.001523  -0.001177  -2.517083   8.241672   2.643855   6.046277  -0.000917   0.000463  -9.867236  12.437598  11.659049  -2.414664   0.001223   0.000868
 -2.876365   0.919595   4.426670   7.531511   1.363104  -1.638957   8.389553  -1.082105   2.106919  -2.428247  -0.776696   2.465921   3.302039   0.607051  -1.060514  -0.803608  -7.870450 -14.306504  15.003445   8.141465  37.298847  -0.730122  87.637054   0.736681  -2.245304   6.492922   4.898555  -0.841306  -0.200157  14.363937   8.668540 -20.196872 -23.935769 -179.901984 -76.409894 -179.877639  -1.666383  -8.227449  -4.968689 -34.245406 -11.582418 -10.809127  47.845153  -0.007245  -0.003494   6.845108 -18.196195   8.007642  -3.136285   0.001699  -0.001229  -2.462878   8.416854   3.061031   6.031328  -0.000693   0.000364 -10.272826  12.496910  11.300004  -1.829611   0.001534   0.001298
 -2.880511   0.918597   4.428599   7.604209   1.203329  -1.732652   8.534064  -1.263796   2.178335  -2.745431  -0.813484   2.385840   3.209433   0.728808  -1.094884  -0.879970  -7.890390 -13.806509  14.247726   8.145962  37.571512  -0.701858  87.876705   0.708502  -2.307139   6.460293   4.612850  -0.976567  -0.153367  14.069410   7.699646 -20.196505 -24.074673 -179.915931 -76.238724 -179.896283  -1.654044  -8.204839  -4.555606 -34.408440 -11.444672 -10.712969  45.537117  -0.006870  -0.002852   6.573292 -18.067962   7.962145  -3.202250   0.001797  -0.001236  -2.401681   8.582200   3.461573   6.000204  -0.000468   0.000281 -10.713382  12.555939  10.969067  -1.292496   0.001625   0.001552
 -2.884810   0.917490   4.430552   7.678701   1.064049  -1.811316   8.674342  -1.437874   2.227480  -3.040627  -0.850092   2.301414   3.120445   0.842106  -1.130064  -0.946048  -7.904968 -13.315320  13.544342   8.155218  37.840050  -0.677711  88.101215   0.684264  -2.367982   6.433482   4.367371  -1.098163  -0.114995  13.781497   6.795922 -20.199133 -24.211325 -179.927806 -76.080041 -179.912010  -1.642361  -8.175984  -4.162849 -34.585258 -11.307440 -10.648188  43.366618  -0.006711  -0.002387   6.318799 -17.948359   7.919741  -3.265383   0.001824  -0.001217  -2.336490   8.737369   3.852490   5.959235  -0.000257   0.000208 -11.169841  12.613513  10.662615  -0.800683   0.001554   0.001731
 -2.889267   0.916314   4.432530   7.754476   0.953961  -1.879469   8.812000  -1.605156   2.261817  -3.312125  -0.887752   2.214849   3.036565   0.947632  -1.164680  -1.003968  -7.918342 -12.843788  12.890340   8.163871  38.098057  -0.657087  88.310625   0.663395  -2.426977   6.408076   4.150912  -1.207354  -0.082416  13.503684   5.953864 -20.203295 -24.344024 -179.937938 -75.932064 -179.925292  -1.632163  -8.149642  -3.797381 -34.768740 -11.171649 -10.607574  41.336442  -0.006709  -0.002284   6.080953 -17.836955   7.880130  -3.325769   0.001797  -0.001186  -2.272165   8.883612   4.238393   5.911737  -0.000068   0.000139 -11.625715  12.670211  10.378506  -0.350310   0.001368   0.001884
 -2.893886   0.915093   4.434537   7.832043   0.876797  -1.939558   8.947242  -1.765497   2.285141  -3.560556  -0.926278   2.127235   2.958243   1.045982  -1.198079  -1.055266  -7.932331 -12.397001  12.282422   8.169568  38.342499  -0.639765  88.505440   0.645712  -2.483666   6.380579   3.954818  -1.305569  -0.053665  13.238118   5.169674 -20.207684 -24.471634 -179.946599 -75.793905 -179.936522  -1.623423  -8.126927  -3.459203 -34.953568 -11.038325 -10.585793  39.441773  -0.006769  -0.002549   5.858805 -17.733214   7.843082  -3.383486   0.001730  -0.001150  -2.212491   9.022028   4.622114   5.859848   0.000098   0.000070 -12.069566  12.726580  10.115055   0.062210   0.001103   0.002027
 -2.898535   0.913364   4.436745   7.896851   0.723260  -1.986268   8.998054  -1.980942   2.305969  -3.799215  -0.961617   1.988044   2.826507   1.133461  -1.253280  -1.051543  -7.772422 -11.808747  11.484193   8.436177  38.597516  -0.340324  88.134092   0.343176  -2.464862   6.459855   3.642772  -1.315925  -0.021364  12.867325   4.362881 -20.127537 -24.689557 -179.968366 -76.139492 -179.959688  -1.594002  -8.396296  -3.058772 -34.948843 -11.057094 -10.499626  37.163476  -0.004800  -0.000019   5.740305 -17.658292   7.886132  -3.544864   0.002514  -0.001232  -2.175124   9.320719   4.956672   5.911148  -0.000049   0.000132 -12.821042  12.819245   9.755372   0.282379   0.001239   0.002196
 -2.903187   0.910948   4.439063   7.959784   0.507894  -1.999098   9.013989  -2.165078   2.287194  -4.055357  -0.960638   1.832695   2.680109   1.210367  -1.311370  -1.055871  -7.551996 -11.198512  10.712770   8.723521  38.864048  -0.169869  87.757693   0.170190  -2.434352   6.370564   3.328322  -1.307111  -0.003368  12.474754   3.618311 -20.043848 -24.913073 -179.987421 -76.509764 -179.979588  -1.552106  -8.435751  -2.637826 -34.913236 -11.100414 -10.388020  34.954986  -0.002240   0.003262   5.626013 -17.586956   7.927173  -3.691068   0.003053  -0.001167  -2.137958   9.610428   5.216868   5.974855  -0.000178   0.000158 -13.526284  12.910782   9.422154   0.456094   0.001293   0.002082
 -2.907907   0.909888   4.441944   7.987914   0.180514  -1.633549   9.038762  -2.306768   1.944327  -4.310406  -0.916879   1.547513   2.529734   1.281853  -1.379506  -1.035042  -7.321662 -10.428086   9.998346   9.031338  39.212247  -0.076977  87.393770   0.074788  -2.396656   6.213395   3.117241  -1.248786   0.032119  11.964685   2.959047 -19.956309 -25.174628 179.996230 -76.884468 -179.995681  -1.498914  -8.339639  -2.332735 -34.826994 -11.098891 -10.495170  32.807749   0.002400   0.009603   5.519045 -17.521085   7.963874  -3.803135   0.003324  -0.000857  -2.083519   9.898895   5.203092   6.342123  -0.001276   0.000076 -13.944201  13.017869   9.105926   0.646313   0.001025   0.001699
 -2.912685   0.908837   4.445081   8.051352  -0.181236  -1.340522   9.012197  -2.412800   1.724113  -4.557101  -0.845343   1.270716   2.384563   1.349199  -1.453310  -1.020305  -7.087901  -9.757068   9.325418   9.324453  39.527959  -0.024395  87.063329   0.020613  -2.369852   6.092984   2.955798  -1.180825   0.073932  11.487304   2.352657 -19.876475 -25.436535 179.984936 -77.225671 179.992931  -1.456710  -8.246010  -2.057227 -34.720297 -11.147018 -10.449307  30.836183   0.006545   0.014195   5.418745 -17.459295   7.999324  -3.916717   0.003531  -0.000580  -2.001460  10.156921   5.256140   6.628745  -0.001939  -0.000134 -14.450178  13.102171   8.793987   0.814149   0.000844   0.001280
 -2.917502   0.907687   4.448370   8.145894  -0.526379  -1.062243   8.964300  -2.510523   1.540507  -4.806334  -0.771974   1.021829   2.245318   1.412110  -1.518639  -1.016955  -6.862165  -9.156665   8.688225   9.594889  39.812345   0.006312  86.759000  -0.011067  -2.345952   6.001129   2.790409  -1.118490   0.112761  11.051070   1.787045 -19.799465 -25.677259 179.977325 -77.541152 179.984940  -1.418475  -8.166813  -1.797141 -34.606469 -11.210851 -10.345815  29.024382   0.009714   0.017049   5.325698 -17.401144   8.032979  -4.024769   0.003611  -0.000360  -1.918225  10.391826   5.318956   6.868372  -0.002326  -0.000281 -14.943845  13.180672   8.509208   0.958769   0.000661   0.000937
